<svg xmlns="http://www.w3.org/2000/svg" enable-background="new 0 0 24 24" viewBox="0 0 24 24"><path fill="#303c42" d="M19.679,0.034c-0.163-0.064-0.348-0.036-0.487,0.073c-0.019,0.015-1.866,1.451-3.342,1.918   c-0.352,0.111-0.847,0.249-1.414,0.408c-2.714,0.759-5.024,1.45-5.789,2.216C7.819,5.476,7.266,8.673,7.067,9.996H6.989   c-0.536,0-1.04,0.21-1.417,0.59c-0.378,0.38-0.585,0.884-0.583,1.42c0.004,0.921,0.008,1.991,0.01,2.992H3.5   c-0.176,0-0.338,0.092-0.429,0.243l-3,5.001l0.007,0.004C0.033,20.321,0,20.405,0,20.499V23.5C0,23.776,0.224,24,0.5,24h18   c0.276,0,0.5-0.224,0.5-0.5v-3.001c0-0.094-0.033-0.178-0.079-0.253l0.007-0.004l-3-5.001c-0.09-0.15-0.253-0.243-0.429-0.243H14   v-1.29c0.757-0.383,1.502-0.653,2.047-0.705c0.14-0.013,0.273-0.019,0.404-0.025c0.722-0.034,1.469-0.068,2.843-1.068   c0.738-0.537,1.163-1.238,1.612-1.979c0.618-1.019,1.257-2.074,2.845-2.994C23.905,6.846,24,6.68,24,6.502   C24,1.743,19.722,0.05,19.679,0.034z M11.986,10h-0.745l0.631-1.578c0.271-0.078,0.711-0.209,1.054-0.34   c0.107,0.06,0.226,0.112,0.353,0.168c0.207,0.091,0.434,0.19,0.609,0.329C13.534,9.077,12.784,9.582,11.986,10z"/><path fill="#e6e6e6" d="M5.989,12.004c-0.001-0.268,0.102-0.52,0.291-0.71C6.47,11.105,6.721,11,6.989,11h3.017   c-0.918,0.623-2.009,1.679-2.204,2.637c-0.098,0.479,0.021,0.902,0.344,1.224c0.457,0.458,1.036,0.641,1.654,0.641   c1.009,0,2.123-0.49,2.983-1.083c0.07-0.048,0.145-0.087,0.216-0.134V18H5.985C5.99,17.862,6.003,14.896,5.989,12.004z"/><g opacity=".2"><path fill="#fff" d="M10.283 15.502c.912 0 1.899-.406 2.717-.921v-.296c-.071.047-.146.086-.216.134-.804.554-1.828 1.003-2.783 1.061C10.094 15.489 10.187 15.502 10.283 15.502zM6.472 12.004c-.001-.268.102-.52.291-.71C6.952 11.105 7.204 11 7.472 11H6.989c-.268 0-.52.104-.709.294-.189.19-.292.442-.291.71C6.003 14.896 5.99 17.862 5.985 18h.482C6.472 17.862 6.485 14.896 6.472 12.004z"/><g><path fill="#e6e6e6" d="M10.283 15.502c.912 0 1.899-.406 2.717-.921v-.296c-.071.047-.146.086-.216.134-.804.554-1.828 1.003-2.783 1.061C10.094 15.489 10.187 15.502 10.283 15.502zM6.472 12.004c-.001-.268.102-.52.291-.71C6.952 11.105 7.204 11 7.472 11H6.989c-.268 0-.52.104-.709.294-.189.19-.292.442-.291.71C6.003 14.896 5.99 17.862 5.985 18h.482C6.472 17.862 6.485 14.896 6.472 12.004z"/></g></g><rect width="17" height="2.001" x="1" y="20.999" fill="#546e7a"/><path fill="#78909c" d="M15.217,16l2.4,4H1.383l2.4-4H5C5,16.36,5,16.697,5,17c-0.551,0-1,0.449-1,1c0,0.551,0.449,1,1,1h9   c0.551,0,1-0.449,1-1s-0.449-1-1-1v-1H15.217z"/><path fill="#ffe082" d="M20.051,9.415c-0.413,0.682-0.77,1.27-1.345,1.688c-1.132,0.823-1.648,0.847-2.301,0.877   c-0.147,0.007-0.296,0.014-0.452,0.029c-1.013,0.096-2.479,0.719-3.736,1.586c-1.117,0.771-2.646,1.274-3.363,0.558   c-0.059-0.059-0.107-0.138-0.071-0.317c0.16-0.784,1.617-2.047,2.405-2.365c0.948-0.383,3.213-1.419,3.775-2.772   c0.064-0.154,0.047-0.33-0.046-0.469c-0.333-0.5-0.854-0.729-1.235-0.896c-0.111-0.049-0.268-0.105-0.27-0.112   C13.27,7.018,13.002,6.95,12.776,7.06c-0.304,0.152-1.119,0.387-1.407,0.464c-0.152,0.041-0.275,0.151-0.334,0.297L10.164,10H8.081   c0.281-1.816,0.803-4.169,1.273-4.639c0.643-0.643,3.59-1.467,5.351-1.959c0.58-0.162,1.086-0.304,1.446-0.417   c1.328-0.419,2.834-1.471,3.414-1.899c0.799,0.394,3.294,1.883,3.43,5.143C21.367,7.245,20.641,8.443,20.051,9.415z"/><path fill="#fff" d="M10.026,6.034c0.643-0.643,3.59-1.467,5.351-1.959c0.58-0.162,1.086-0.304,1.446-0.417   c1.328-0.419,2.834-1.471,3.414-1.899c0.29,0.143,0.807,0.436,1.351,0.902c-0.756-0.873-1.613-1.372-2.023-1.574   c-0.58,0.428-2.086,1.48-3.414,1.899c-0.359,0.114-0.866,0.255-1.446,0.417c-1.761,0.493-4.708,1.317-5.351,1.959   C8.883,5.831,8.362,8.184,8.081,10h0.784C9.16,8.319,9.613,6.448,10.026,6.034z" opacity=".2"/><path d="M20.913,1.985c0.714,0.825,1.339,1.984,1.405,3.567c-1.627,1.017-2.354,2.215-2.943,3.187   c-0.413,0.682-0.77,1.27-1.345,1.688c-1.132,0.823-1.648,0.847-2.301,0.877c-0.147,0.007-0.296,0.014-0.452,0.029   c-1.013,0.096-2.479,0.719-3.736,1.586c-0.856,0.59-1.95,1.019-2.739,0.867c-0.004,0.016-0.015,0.034-0.019,0.05   c-0.036,0.18,0.013,0.259,0.071,0.317c0.717,0.716,2.246,0.212,3.363-0.558c1.257-0.867,2.724-1.49,3.736-1.586   c0.156-0.015,0.305-0.022,0.452-0.029c0.653-0.03,1.169-0.054,2.301-0.877c0.575-0.419,0.932-1.007,1.345-1.688   c0.589-0.972,1.315-2.169,2.943-3.187C22.908,4.152,21.866,2.799,20.913,1.985z" opacity=".1"/><linearGradient id="a" x1="9.504" x2="13.5" y1="13.504" y2="17.5" gradientUnits="userSpaceOnUse"><stop offset="0" stop-opacity=".1"/><stop offset="1" stop-opacity="0"/></linearGradient><path fill="url(#a)" d="M13,18v-3.715c-0.071,0.047-0.146,0.086-0.216,0.134c-0.86,0.593-1.974,1.083-2.983,1.083   c-0.618,0-1.197-0.184-1.654-0.641L11.286,18H13z"/><linearGradient id="b" x1="14.69" x2="14.7" y1="17.28" y2="17.29" gradientUnits="userSpaceOnUse"><stop offset="0" stop-opacity=".1"/><stop offset="1" stop-opacity="0"/></linearGradient><polygon fill="url(#b)" points="14.701 17.289 14.692 17.281 14.689 17.281"/><linearGradient id="c" x1="7.447" x2="14.469" y1="15.92" y2="22.943" gradientUnits="userSpaceOnUse"><stop offset="0" stop-opacity=".1"/><stop offset="1" stop-opacity="0"/></linearGradient><path fill="url(#c)" d="M14.711,17.299C14.889,17.48,15,17.727,15,18c0,0.551-0.449,1-1,1H5   c-0.177,0-0.335-0.059-0.479-0.14l-0.017,0.003L5.641,20h11.771L14.711,17.299z"/><linearGradient id="d" x1="5.25" x2="14.751" y1="16.749" y2="26.25" gradientUnits="userSpaceOnUse"><stop offset="0" stop-opacity=".1"/><stop offset="1" stop-opacity="0"/></linearGradient><polygon fill="url(#d)" points="18 23 18 20.999 1 20.999 3.001 23"/><linearGradient id="e" x1="5.002" x2="21.84" y1="9.668" y2="17.52" gradientUnits="userSpaceOnUse"><stop offset="0" stop-color="#fff" stop-opacity=".2"/><stop offset="1" stop-color="#fff" stop-opacity="0"/></linearGradient><path fill="url(#e)" d="M19.679,0.034c-0.163-0.064-0.348-0.036-0.487,0.073c-0.019,0.015-1.866,1.451-3.342,1.918   c-0.352,0.111-0.847,0.249-1.414,0.408c-2.714,0.759-5.024,1.45-5.789,2.216C7.819,5.476,7.266,8.673,7.067,9.996H6.989   c-0.536,0-1.04,0.21-1.417,0.59c-0.378,0.38-0.585,0.884-0.583,1.42c0.004,0.921,0.008,1.991,0.01,2.992H3.5   c-0.176,0-0.338,0.092-0.429,0.243l-3,5.001l0.007,0.004C0.033,20.321,0,20.405,0,20.499V23.5C0,23.776,0.224,24,0.5,24h18   c0.276,0,0.5-0.224,0.5-0.5v-3.001c0-0.094-0.033-0.178-0.079-0.253l0.007-0.004l-3-5.001c-0.09-0.15-0.253-0.243-0.429-0.243H14   v-1.29c0.757-0.383,1.502-0.653,2.047-0.705c0.14-0.013,0.273-0.019,0.404-0.025c0.722-0.034,1.469-0.068,2.843-1.068   c0.738-0.537,1.163-1.238,1.612-1.979c0.618-1.019,1.257-2.074,2.845-2.994C23.905,6.846,24,6.68,24,6.502   C24,1.743,19.722,0.05,19.679,0.034z M11.986,10h-0.745l0.631-1.578c0.271-0.078,0.711-0.209,1.054-0.34   c0.107,0.06,0.226,0.112,0.353,0.168c0.207,0.091,0.434,0.19,0.609,0.329C13.534,9.077,12.784,9.582,11.986,10z"/></svg>